# xmcd
#
# Track frame offsets:
# 150
# 21651
# 39090
# 59426
# 81812
# 95225
# 111085
# 128200
# 143511
# 162593
# 174967
# 192627
# 207602
# 225461
# 242077
# 266935
#
# Disc length: 3801 seconds
#
#
# Revision: 3
# Processed by: cddbd v1.5.1PL0 Copyright (c) Steve Scherf et al.
# Submitted via: FreeRIP 2.12 
#
DISCID=ea0ed710
DTITLE=Malhação Internacional 2004
DYEAR=1900
DGENRE=
TTITLE0=Satisfaction-Benny Benassi
TTITLE1=I Hate Everything About You-Three Days Grace
TTITLE2=Behind Blue Eyes-Limp Bizkit
TTITLE3=Shut Up-Black Eyed Peas
TTITLE4=Girlfriend-Remix-B2k
TTITLE5=I'm Still in Love with You-Sasha-Sean Paul
TTITLE6=I Miss You-Blink 182
TTITLE7=Don't Tell Me-Avril Lavigne
TTITLE8=My Immortal-Gothic
TTITLE9=You're the Only One-Maria Mena
TTITLE10=Here without You-3 Doors Down
TTITLE11=Waste-Smash Mouth
TTITLE12=Blond Thang!-Da Big Boy Daddy-Babbotz
TTITLE13=I Don't Make You Happy-Phunk Freaks
TTITLE14=Piano-New Deal
TTITLE15=Pause-The Bombers
EXTD=
EXTT0=
EXTT1=
EXTT2=
EXTT3=
EXTT4=
EXTT5=
EXTT6=
EXTT7=
EXTT8=
EXTT9=
EXTT10=
EXTT11=
EXTT12=
EXTT13=
EXTT14=
EXTT15=
PLAYORDER=
